<svg xmlns="http://www.w3.org/2000/svg" width="360" height="360" viewBox="0 0 360 360">
  <path d="M331.5,166.29 L317.16,133.29 L221.4,174.89 C220.226667,172.963333 218.99,171.08 217.69,169.24 L298.28,88.65 L272.82,63.18 L192.23,143.77 C190.963333,142.876667 189.673333,142.01 188.36,141.17 L229.54,41.76 L196.28,28 L155.12,127.38 C110.174653,117.399868 64.0163446,138.158701 41.6600576,178.40648 C19.3037707,218.654259 26.0707061,268.811284 58.2935985,301.695512 C90.5164909,334.579741 140.525708,342.364131 181.219311,320.830019 C221.912914,299.295907 243.605088,253.568802 234.54,208.43 L331.5,166.29 Z M132.53,297 C105.026567,297 80.2312998,280.432332 69.7061918,255.022473 C59.1810838,229.612615 64.9988751,200.364603 84.4467389,180.916739 C103.894603,161.468875 133.142615,155.651084 158.552473,166.176192 C183.962332,176.7013 200.53,201.496567 200.53,229 C200.469436,266.530248 170.060248,296.939436 132.53,297 Z"/>
</svg>
