<svg xmlns="http://www.w3.org/2000/svg" width="360" height="360" viewBox="0 0 360 360">
  <path d="M335.44,50 L310,24.56 L218.82,115.74 C197.876559,100.170221 172.456749,91.7963477 146.36,91.87 L146.36,91.87 C79.0972403,91.87 24.57,146.39724 24.57,213.66 C24.57,280.92276 79.0972403,335.45 146.36,335.45 L146.36,335.45 C192.348156,335.439051 234.410582,309.531046 255.111456,268.465434 C275.812329,227.399823 271.622985,178.176639 244.28,141.2 L335.44,50 Z M207,274.31 C182.465943,298.850278 145.564428,306.194093 113.504232,292.916706 C81.4440355,279.639319 60.5396195,248.355795 60.5396195,213.655 C60.5396195,178.954205 81.4440355,147.670681 113.504232,134.393294 C145.564428,121.115907 182.465943,128.459722 207,153 L207,153 C240.499491,186.502463 240.499491,240.817537 207,274.32 L207,274.31 Z"/>
</svg>
