<svg xmlns="http://www.w3.org/2000/svg" width="360" height="360" viewBox="0 0 360 360">
  <path d="M261.83,22.3 C234.422484,22.2900095 209.141929,37.0682567 195.703904,60.9553148 C182.26588,84.8423729 182.761388,114.121333 197,137.54 L137.54,197 C104.703313,177.048508 62.1374336,184.774774 38.4073675,214.993873 C14.6773015,245.212973 17.2650691,288.396914 44.4340774,315.565923 C71.6030857,342.734931 114.787027,345.322698 145.006127,321.592632 C175.225226,297.862566 182.951492,255.296687 163,222.46 L222.46,163 C249.894962,179.660928 284.846397,177.252041 309.736235,156.984835 C334.626073,136.71763 344.066601,102.979195 333.309908,72.737548 C322.553215,42.4959013 293.92772,22.2972217 261.83,22.3 L261.83,22.3 Z M98.17,301.7 C82.0395502,301.716183 67.4885964,292.011353 61.3054584,277.113015 C55.1223204,262.214677 58.5253811,245.058537 69.9270426,233.648288 C81.3287041,222.238039 98.4822771,218.822062 113.385266,224.993981 C128.288256,231.1659 138.004038,245.709543 138,261.84 C137.972493,283.83096 120.160933,301.655936 98.17,301.7 Z M261.83,138 C245.701361,137.999995 231.161418,128.282733 224.992062,113.380651 C218.822705,98.4785699 222.239315,81.3274208 233.648277,69.927044 C245.057238,58.5266673 262.210954,55.1229684 277.108387,61.3035404 C292.00582,67.4841124 301.712136,82.0313658 301.7,98.16 C301.661426,120.158737 283.82876,137.977985 261.83,138 Z"/>
</svg>
