<svg xmlns="http://www.w3.org/2000/svg" width="360" height="360" viewBox="0 0 360 360">
  <path d="M285,126.14 C285,68.6830561 238.421944,22.105 180.965,22.105 C123.508056,22.105 76.93,68.6830561 76.93,126.14 L112.93,126.14 C112.93,88.584637 143.374637,58.14 180.93,58.14 C218.485363,58.14 248.93,88.584637 248.93,126.14 C248.93,163.695363 218.485363,194.14 180.93,194.14 L163,194.14 L163,266 L127.14,266 L127.14,302 L163,302 L163,337.9 L199,337.9 L199,302 L234.86,302 L234.86,266 L199,266 L199,228.61 C248.700542,219.789495 284.933813,176.617132 285,126.14 Z"/>
</svg>
