<svg xmlns="http://www.w3.org/2000/svg" width="360" height="360" viewBox="0 0 360 360">
  <path d="M218.8,228.94 L220.65,228.55 L220.97,228.48 L222.82,228.06 L222.93,228.06 C224.73,227.63 226.57,227.13 228.42,226.58 L228.86,226.45 L230.33,225.99 C237.109428,223.804172 243.646931,220.929145 249.84,217.41 L266.12,208.18 L247.74,204.68 C210.214365,197.473174 183.087971,164.641407 183.087971,126.43 C183.087971,88.2185934 210.214365,55.386826 247.74,48.18 L266.12,44.68 L249.84,35.45 C243.643684,31.9303578 237.102814,29.0553236 230.32,26.87 L228.86,26.41 L228.38,26.27 C226.55,25.72 224.72,25.27 222.98,24.81 L222.74,24.75 L220.93,24.34 L220.59,24.27 L218.74,23.89 C216.9,23.53 215,23.2 213.08,22.89 L212.5,22.81 L210.93,22.61 L210.19,22.53 L208.67,22.37 L207.96,22.31 L205.47,22.11 L204.25,22 L203.17,22 L201.75,21.95 L200.75,21.95 L198.52,21.95 L198.38,21.95 C144.463755,21.9916469 99.4211222,63.0270121 94.3704877,116.706192 C89.3198531,170.385372 125.917764,219.102235 178.88,229.2 L178.88,266.39 L143.05,266.39 L143.05,302.39 L178.91,302.39 L178.91,338.25 L214.91,338.25 L214.91,302.29 L250.77,302.29 L250.77,266.29 L214.92,266.29 L214.92,229.62 C216.22,229.41 217.52,229.19 218.8,228.94 Z M166.87,187.27 C144.127064,175.487014 129.848991,152.009057 129.848991,126.395 C129.848991,100.780943 144.127064,77.302986 166.87,65.52 C140.805905,101.918505 140.805905,150.871495 166.87,187.27 L166.87,187.27 Z"/>
</svg>
