<svg xmlns="http://www.w3.org/2000/svg" width="360" height="360" viewBox="0 0 360 360">
  <path d="M291.81,68.25 C230.092179,6.53217921 130.027821,6.53217921 68.31,68.25 C6.59217921,129.967821 6.59217921,230.032179 68.31,291.75 C130.027821,353.467821 230.092179,353.467821 291.81,291.75 C353.527821,230.032179 353.527821,129.967821 291.81,68.25 L291.81,68.25 Z M302.1,180 C302.175075,206.163483 293.776167,231.647888 278.16,252.64 L205.52,180 L278.16,107.36 C293.775521,128.352448 302.174356,153.836632 302.1,180 L302.1,180 Z M252.7,81.9 L180.06,154.54 L107.42,81.9 C150.585217,49.975436 209.534783,49.975436 252.7,81.9 L252.7,81.9 Z M58,180 C57.9429782,153.82981 66.3630803,128.344967 82,107.36 L154.6,180 L82,252.64 C66.3630803,231.655033 57.9429782,206.17019 58,180 L58,180 Z M107.4,278.1 L180.04,205.46 L252.68,278.1 C209.514783,310.024564 150.565217,310.024564 107.4,278.1 Z"/>
</svg>
